<?xml version="1.0" encoding="UTF-8" standalone="no"?>
<svg xmlns="http://www.w3.org/2000/svg" xml:space="preserve" width="529.9035" height="249.62308">
  <path fill="#a99a6f" d="M209.62188 55.2c-.8-.3-1.8-.6-2.3.2-.5.7.3 1.5 1.4 2.1-.7-.1-1.1-.3-1.4.3-.5.9 1.2 2.2 2.1 2.6-.7-.4-1.5-.5-1.7.2-.3 1.1 3.9 3.6 6.5 5.1 1.2 1.1 4.8 2.4 6.7 2.8.5.1 2.6.1 4.5.7.2-1.4.4-2.6.6-4.2.1-1 .2-2 .3-2.9-.9-1-1.8-2-2.4-3 0-.1-.1-.1-.1-.2l-.2-.2-.1-.1-.6-.6c-.2-.2-1.7-1.6-3.1-1.9-1.3-.3-2.5 0-2.5 0-.9-.3-3.2-1.4-4.7-2.1 0 0-2.5-1.1-3.1-.5-.5.5-.6 1.1.1 1.7zm58.9 155.8h.4c1.1-.1 2-.8 2.9-1.9 0-.1.1-.1.1-.2l-2.5-29.5c-1.2.2-2.4.2-3.6.3v6c0 9.3.1 19.1.1 23.9.7.8 1.6 1.3 2.6 1.4zm-9.2-150.8c.5.2 1.1.3 1.5.3.4 0 .7-.1.8-.4.6-1 10.3-16.4 15.4-19.8-.7-1.4-1.2-3-1.9-5.1-.1-.3-.2-.5-.2-.8-.4 2-1.8 3.8-5.4 4.2-1.2-.1-3.7-2.3-5.9-3.2-.2.7-.5 1.4-.5 2.1.3.1.6.3.9.4 0 .3.1.6.1.9h-1c-2.7 10.5-5.4 17.3-5.7 19.3-.1.7-.1 1 .1 1.1.5.5.9.6 1.8 1zm7 165.7c.5.5 1.1.8 1.7 1 .7 0 1.4 0 2.1-.1.9-.3 1.7-.9 2.4-1.7l-1-12c-.7.4-1.4.6-2.2.7-.3 0-.6.1-.8.1h-.1c-.7 0-1.4-.2-2.1-.4v12.4zm-49.5-128.7h2c.1 0 .3 0 .4-.1.1 0 .3 0 .4-.1.1 0 .3-.1.4-.1.1 0 .3-.1.4-.1.1 0 .3-.1.4-.1.1 0 .3-.1.4-.1.1 0 .3-.1.4-.1.1 0 .2-.1.4-.1.1-.1.2-.1.4-.2.1-.1.2-.1.4-.2.1-.1.2-.1.4-.2.1-.1.2-.1.3-.2.1-.1.2-.1.3-.2.1-.1.2-.1.3-.2.1-.1.2-.2.3-.2.1-.1.2-.2.3-.2l.3-.3.3-.3.3-.3.3-.3.3-.3.3-.3.3-.3c.1-.1.2-.2.2-.3.1-.1.2-.3.3-.4 0-.1.1-.1.1-.2 0 0-1.6-.2-2.7-.2s-1.9.2-2.1.3l-.2.2c-.1.1-.2.2-.4.3-.1.1-.2.1-.3.2-.1.1-.3.1-.4.2-.1.1-.2.1-.3.2-.1.1-.3.1-.4.2-.1 0-.2.1-.3.1-.1.1-.3.1-.4.1-.1 0-.2.1-.3.1-.1 0-.3.1-.4.1-.1 0-.2.1-.4.1-.1 0-.3 0-.4.1h-1.5c-4.7-.2-8.3-4.1-8.1-8.8 0-.3 0-.6.1-.9v-.2c0-.2.1-.4.1-.6 0-.1 0-.2.1-.2.1-.2.1-.4.2-.6 0-.1.1-.2.1-.2.1-.2.1-.3.2-.5 0-.1.1-.2.1-.3.1-.2.2-.3.2-.5 0-.1.1-.2.2-.2.1-.1.2-.3.3-.4.1-.1.1-.2.2-.2.1-.1.2-.3.3-.4l.2-.2.4-.4c.1-.1.2-.1.2-.2.1-.1.3-.2.4-.3.1-.1.2-.1.2-.2.1-.1.3-.2.4-.3.1-.1.2-.1.3-.2.1-.1.3-.2.4-.2.1 0 .2-.1.3-.1.2-.1.3-.1.5-.2.1 0 .2-.1.3-.1.2-.1.3-.1.5-.2.1 0 .2-.1.3-.1.2 0 .3-.1.5-.1h.3c.2 0 .3 0 .5-.1h.9c2.7.1 5 1.4 6.5 3.4 1.3.1 3.1.4 4.5 1-1.6-4.5-5.8-7.8-10.8-8h-1.4c-.2 0-.5 0-.7.1-.2 0-.3 0-.5.1-.2 0-.5.1-.7.1-.2 0-.3.1-.5.1-.2.1-.4.1-.7.2-.1.1-.3.1-.4.2l-.6.3c-.1.1-.3.1-.4.2l-.6.3c-.1.1-.3.2-.4.2-.2.1-.4.2-.5.4-.1.1-.3.2-.4.3-.2.1-.3.3-.5.4-.1.1-.2.2-.4.3l-.5.5-.3.3c-.1.2-.3.3-.4.5-.1.1-.2.2-.3.4-.1.2-.2.4-.4.6-.1.1-.2.3-.3.4l-.3.6c-.1.1-.2.3-.2.4l-.3.6c-.1.1-.1.3-.2.4-.1.2-.1.5-.2.7 0 .1-.1.3-.1.4-.1.3-.1.5-.2.8 0 .1 0 .2-.1.4-.1.4-.1.8-.1 1.2 0 6.7 5.1 12.3 11.7 12.5zm88.8 121.6c.4 0 .9-.1 1.3-.2.8-.3 1.5-.9 2.1-1.6l-3.9-12.5c-.7.7-1.5 1.3-2.4 1.7h-.2c-.7.2-1.4.4-2.1.4h-.1l3.8 11.8c.3.2.9.4 1.5.4zm-9.8-10c-.4.1-.8.1-1.2.1h-.2c-.4 0-.9-.1-1.3-.2l3.1 11.5c.9.7 1.9 1.2 2.8 1.2.2 0 .4 0 .6-.1 1.1-.2 2-.9 2.7-1.9l-3.8-12c-.7.7-1.7 1.2-2.7 1.4zm-88.4-82.3h23.9c-1.8 4.3-2.9 9.1-2.9 14.1 0 19.9 16.2 36.1 36.1 36.1 19.9 0 36.1-16.2 36.1-36.1 0-5-1-9.8-2.9-14.1h22c43 0 50.2-22.8 50.2-22.8h-85.8c-.4 0-.7 0-1.1.1.7-8.8 1.4-17.5 1.8-25.2-1.7 7.3-3.9 14.7-5.2 20.9-3.1 14.8-14.5 48.8-14.5 48.8-.8 2.8-1.7 4.3-3.3 4.4-2-.1-3.6-2.6-5.5-6.3-1.8-3.8-3.8-8.9-5.8-14.6-1.2-3.3-2.4-6.8-3.5-10.4l-.3 2.7c-1.2 13-2 24.6-2.9 31.9 4.5 6.5 12.1 10.8 20.7 10.8 8.4 0 15.8-4.1 20.4-10.3-.1-.7-.2-1.5-.3-2.2 0-.1 0-.3-.1-.4-.2-1.7-.5-3.3-.7-4.9 0-.2 0-.3-.1-.5-.2-1.6-.4-3.2-.5-4.7v-.4c-.2-1.6-.3-3.1-.4-4.6v-.1c0-.3 0-.6-.1-.9v-.2c-.6-7.3-.7-14-.5-20.3 5.6 4.3 9.6 10.5 10.9 17.7 0 .1 0 .2.1.2.1.5.2 1.1.2 1.6v.1c.1.5.1.9.1 1.4v.4c0 .6.1 1.2.1 1.8v1.9c0 .3 0 .6-.1.9 0 .2 0 .4-.1.5 0 .3-.1.6-.1.8 0 .2-.1.4-.1.5-1.6 14.3-13.9 25.4-28.7 25.4-15.1 0-27.6-11.6-28.8-26.4-.2-1.2-.3-2.5-.3-3.8 0-8.9 4-16.9 10.4-22.2-1.7-5.2-3.5-10.3-5.1-14.6h-83.5c0 .2 7.2 23 50.2 23zm50.9-50.9s9.5-29.4 20.1-29.4c.4 0 .8 0 1.2.1.5.1 2.4 1 2.8 1.1l.2-1.2c-1.1-.8-3.9-2.6-4.6-4.2-4.6 3.2-12.7 15.4-15.4 19.9-.2.4-.8 1-2 1-.7 0-1.4-.2-2.1-.5-1 2.5-2 9.1-2.8 12-6-2.3-24.1-11.3-27.9-12.8-.3 3.2-.7 7-1.3 9.3 0 3 9 8.8 9.3 12.4l22.5-7.7zm36.9-67.6-2.3 1.2-.9-2.5-2.7 1.3-1.5-2.5-2.5 1.3-1.2-2.2-2.3 1.1-1.2-2-2.3 1.1-1.3-2.4-2.3 1.1-1.2-2.2-2.5 1.2-1.5-2.5-2.6 13.3 22.4 6.4 5.9-11.7zm-6.3 12.6-22.1-6.4-.6 1.9 22 6.5.7-2zm-24 2.8s6 1.7 9.7 6.1h-.1s.1.4.3 1.1c.3.9.7 2.6 1.3 4.4.6 2 2.2 5.4 2.2 5.3.4 1.3 1.6 2.6 1.6 2.6 1.2 1.2 2.7 1.7 4.9 2.4h.1c.1 0 .2 0 .3.1h.9c.1 0 .1 0 .2-.1.1 0 .1 0 .2-.1s.1-.1.2-.1.1-.1.2-.1.1-.1.2-.1.1-.1.2-.1.1-.1.2-.1.1-.1.2-.1.1-.1.2-.2l.2-.2.2-.2.2-.2.2-.2.2-.2.2-.2.2-.2.2-.2c.1-.1.1-.2.2-.2.1-.1.1-.2.2-.2.1-.1.1-.2.2-.3.1-.1.1-.2.2-.2.1-.2.2-.3.3-.5.1-.1.1-.2.2-.3.1-.1.1-.2.2-.3 0-.1.1-.2.1-.3 0-.1.1-.2.1-.3 0-.1.1-.2.1-.3 0-.1.1-.2.1-.3 0-.1.1-.2.1-.3 0-.1.1-.2.1-.3 0-.1.1-.2.1-.3 0-.1.1-.2.1-.3 0-.1.1-.2.1-.3 0-.1.1-.2.1-.3 0-.1.1-.2.1-.3 0-.1.1-.2.1-.3 0-.1.1-.2.1-.3 0-.1 0-.2.1-.3 0-.1 0-.2.1-.3v-2.5c-.1-.8-.3-1.4-.8-2-2.9-3.7-2.6-5-4.3-8.1-.1-.2-.2-.3-.3-.5l-21-5.7h-.3c-.5.4-2.1-.1-2.4 3.9 0 .5.3 1 .8 1.4.3.4.5.5.7.6zm183.6 98.9c2.4-.2 5.3-1.2 6.4-3.7 1-2.2-.5-3.6-2.5-4.4l-81.8-5.3c-.4.6-.8 1.2-1.3 1.9l79.2 11.5zm-170.5-23c.8-3.7 1.8-7.8 2.9-12 3.5-13.6 7.5-29.1 3.3-36-1.1-1.8-2.8-2.9-5.1-3.4-.3-.1-.6-.1-.9-.1-7.7 0-16.1 20.5-18.6 28.4-.1.5-.5.8-1 1l-23.3 8c-.2.6-.8 5.3 11.7 26.5 4.3 7.3 7.1 11.2 9.2 14.1 2.8 3.9 4.5 6.3 6.9 12.7.7 1.8 1.1 3.7 1.4 5.5 3.9-11 10.8-31.9 13.5-44.7zm-43.6-14.2-.3-.3c-1.6-.3-3.7-1.8-5.2-2.5-1.2-.6-5.1-1.5-6.6-1-1 .4-2.2.6-2.4 3-.1 1.8.2 3.2.2 4.3 0 .4 1.3 1.9 1.9 2.5 5.3-1.7 11.1 2.8 14.1 2.2-1.3-2-3-7.7-1.7-8.2zm11.5 27.3c-.9-1.4-1.6-2.8-2.4-4.1 4.5 12.8 9.5 29.2 13.7 37.8 1.8 3.7 3.6 5.9 4.5 5.7.5.1 1.3-.7 2-2.8-.1-2.5-.6-6.6-1.9-10.1-4-11-5.9-9.6-15.9-26.5zm16.1-78.3c1.7.1 3.6 1.3 5.3 2.4.8.5 1.8 1.2 2.3 1.3 1.8-.2 3-.9 3.7-2 1-1.6.8-3.7.5-4.9-.1-.4-.2-.7-.2-.7 0-.1-.1-.2-.1-.2-2.2-3.1-5.1-3.9-7.1-4.5-.6-.2-1.2-.4-1.7-.6V27s0 .9-.6 2.2c-.6 1.2-2.9 4.4-3.1 4.8l.8.2c0-.1.1-.1.2-.1zm4.8-6.3.1.1 3.2 1.9-.4.7-1.7-1.2s-.8 1-1.2.7c-.2-.2-1.2-1.3 0-2.2zm10.5 198.3h.2c.9-.1 1.6-.5 2.2-1.2l-1.9-12.2c-.4.2-.9.3-1.5.4h-.6c-.8 0-1.6-.2-2.4-.6l1 12.1c.8 1 1.9 1.5 3 1.5zm-25.3.2 3 .3c.9-.4 1.6-1.3 2.1-2.2l.6-11.1c-.6.3-1.4.5-2.3.6h-.2c-.4 0-.9-.1-1.3-.2h-.1.1c-.5-.1-.9-.3-1.3-.5l-.6 4.8-.9 7.6c.3.2.6.5.9.7zm7.7-46.9c-1.2-.1-2.3-.3-3.4-.6l-3.5 30.4c.5.7 1.1 1.3 2 1.5.2 0 .5.1.7.1 1.3-.1 2.1-1 2.7-2l1.5-29.4zm2 47.5c1.2-.2 2.2-.9 2.9-1.8v-11.9c-.9.5-1.9.7-2.9.7h-.1c-.7 0-1.3-.2-2-.4l-.6 10.9-.1 1.7c.4.3.9.6 1.4.7.4.1.9.1 1.4.1zm-10.1-18.8 3.4-29.6c-1.4-.3-2.7-.8-4-1.2l-5.3 29.9c.5 1.1 1.1 2.1 2.4 2.4.2 0 .4.1.5.1 1.3-.1 2.3-.6 3-1.6zm-6.6 17.3c.5.1 1 .2 1.4.2 1.3-.1 2.4-.8 3.2-1.9l1.4-11.5c-.7.3-1.4.4-2.1.5h-.2c-.4 0-.8 0-1.1-.1-1-.2-1.9-.7-2.5-1.2l-2.1 11.7c.4 1 .9 1.9 2 2.3zM44.721875 140l36.1-7.8c-1.6-.8-2.6-2-3.3-3.1l-36.9 6.1c-1.3 1.2-.9 2.6-.3 3.3.6.5 2 1.4 4.4 1.5zm193.700005 83.9c.2 0 .4.1.6.1.7 0 1.4-.2 2-.6l2.2-12.2c-.3 0-.5.1-.8.1-.4 0-.7 0-1.1-.1h-.2c-1.1-.3-2-.9-2.6-1.6-.1.1-.3.1-.5.1l-1.5 6.9-1 4.6c.1.1.1.2.2.4.8 1.1 1.5 2 2.7 2.3zm26.1-38.2v-6c-1.2 0-2.4-.1-3.5-.2l-1.7 30.2c.6.7 1.4 1.1 2.2 1.1 1.3 0 2.3-.7 3-1.6.1-4.9 0-14.4 0-23.5zM71.921875 119.8c-.3-.6-.4-1.2-.5-1.8l-39.1 3.4c-1.1 1-1.4 2.3-1 3.1.5 1.3 2.1 2.7 4.6 2.9l38.7-4.3c-1.2-.8-2.1-1.9-2.7-3.3zm-31.8 14.3 36.9-6.1c0-.1-.1-.2-.1-.3-.4-1.1-.4-2.2 0-3.3-.3-.1-.6-.3-.9-.4l-39.9 4.5c-1.3 1.2-1.4 2.9-.8 3.7 1 1.2 2.5 1.8 4.8 1.9zm234.900005 44.1 4.7 29.9c.6.6 1.4 1.1 2.3 1.1h.2c1.3 0 2.2-.7 2.9-1.6l-6.2-30.6c-1.4.5-2.6.9-3.9 1.2zm-33 30h.5c.7 0 1.3-.3 2-.8l5.4-30.6c-1.2-.5-2.4-1-3.5-1.6l-6.9 30.4c.1.1.1.3.2.4.6 1.1 1.2 1.9 2.3 2.2zm215.4-99.4c.2-1.1-.4-2.2-1.3-5.1h-83.1l-.3.9c-.1.2-.5 1.5-1.5 3.3l80.5 5.2c2.6-.6 5.3-1.9 5.7-4.3zm-181.6 101.3h.2c1-.1 1.8-.7 2.5-1.7l-4.7-29.9c-1 .3-2.1.5-3.1.6l2.5 29.7c.7.8 1.6 1.3 2.6 1.3zm12.7-2.4h.4c1.1-.2 1.9-1 2.4-1.9l-8.2-30.9c-1.1.6-2.1 1.1-3.2 1.6l6.1 30c.7.7 1.5 1.1 2.5 1.2zm3.5 15.7h.5c1-.2 1.8-.8 2.4-1.5l-2.1-7.7-1.2-4.4c-.7.4-1.4.7-2.2.9-.3 0-.6.1-.8.1h-.1c-.5 0-1-.1-1.6-.3-.1 0-.1 0-.2.1l2.3 11.4c.8.8 1.8 1.4 3 1.4zm-10.7 0c.8 1 1.8 1.7 3.1 1.7h.2c1.2 0 2.2-.6 2.9-1.3l-2.4-11.8-.1-.5c-.9.5-1.8.7-2.8.7h-.4c-.6 0-1.4-.1-2.2-.5h-.2l.7 4.8 1.2 6.9zm-47.9-19.1s0 .1 0 0c.4.9.7 1.5 1.2 1.9.6.2 1.3.5 2 .7.6-.1 1-.3 1.4-.6l7.2-31.7c-1.3-.7-2.5-1.5-3.7-2.4l-8.1 32.1zm-3.1 17.8c.6.2 1.1.3 1.7.5.6 0 1.1-.2 1.5-.5l2.6-12.1c-.7 0-1.3-.1-1.9-.4-1.2-.5-2-1.3-2.6-2.1-.1 0-.2 0-.4.1l-2.9 11.8c.1.2.1.3.2.4.6.9 1 1.7 1.8 2.3zm-5.4-2.2c.6 0 1.1-.1 1.6-.3l2.9-12c-.6-.1-1.2-.2-1.8-.5h-.2c-1.2-.6-1.9-1.4-2.4-2.2l-3.8 12.2c0 .1.1.2.1.3.5 1 .8 1.8 1.9 2.3.6.1 1.1.2 1.7.2zm59.4-45.6 8.1 30.7c.7.6 1.5.9 2.2.9.2 0 .4 0 .5-.1 1-.2 1.9-.9 2.5-2l-10.1-31.8c-.9.9-2.1 1.6-3.2 2.3zm34.1-16.2c-1.6 0-3.3-.5-4.8-1.4-.7.5-1.6.8-2.8 1l1.4 5.1c.9.8 2.1 1.5 3.5 1.7l.4-.1.1.2c.3 0 .6.1.9.1 1.3 0 3.1-.4 3.5-1.6l-1.5-5h-.7zm-11-28.6 6.1 23.5c1.2 1 3.1 2 4.8 2 1.7 0 2.8-.5 3.1-1.5l-9.1-24.1-4.9.1zm20.1-.2 13.3 23.6c2 1.4 4.6 2.4 6.8 2.4 1.5 0 3-1.7 2.2-3l-.2-.2c0-.1-.1-.1-.1-.2 0 0 .1 0 .1.1l-17.6-23.2c-1.5.2-3 .4-4.5.5zm16-2.6 30.3 27.3c1.7.9 3.5 1.4 5.3 1.4.4 0 .9 0 1.3-.1 1.6-.3 2.3-1.3 2.1-2.3l-35.9-27.2c-1 .3-2 .6-3.1.9zm-23.1 2.8 11.2 23.7c1.9 1.4 4.4 2 6.2 2 .9 0 2.1-.3 2.4-1l-14-24.9c-1.8.1-3.8.2-5.8.2zm18.5-1.7 23.8 26.4c1.7 1 3.7 1.7 6 1.7h.2c1.7 0 2.9-1 2.7-2.2l-29.4-26.7c-1.1.3-2.1.5-3.3.8zm-12 36.8c1.9 0 3.5-.7 3.8-1.8l-2.5-5h-.6c-1.7 0-3.3-.4-4.8-1.1-.6.5-1.5.9-2.6 1.1l1.5 5c1.6 1.3 4 1.8 5.2 1.8zm11.8-6.4c-.3 0-.6.1-.9.1-1.9 0-4.2-.5-6.2-1.5-.7.5-1.5.7-2.3.9l2.7 5.5c1.6.9 3.8 1.4 4.9 1.4 1.7 0 4.8-.9 3.6-2.7l.1.1-1.9-3.8zm-138.8 6.4c1.3 0 3.8-.5 5.4-1.8l1.8-5.7c-.1-.1-.2-.2-.4-.3-1.5.7-3.2 1.1-4.8 1.1-.9 0-2-.2-3-.6l-2.8 5.5c.3 1.1 1.9 1.8 3.8 1.8zm113.6-35.1 8.9 23.6c1.3 1 3.2 1.7 5.1 1.7 1.1 0 2.5-.4 2.9-1.3l-11.3-24.1-5.6.1zm34.4-4.1 36.8 27.9c2 .9 4.3 1.5 6.7 1.5h.6c1.8-.1 2.3-1.2 1.9-2.3l-43.5-28c-.9.3-1.7.6-2.5.9zm-14.6 3.3 19.2 25.2c1.5.8 3.3 1.5 5.1 1.5 2.3 0 3.1-1.2 2.9-2.3l-22.8-25.1c-1.4.3-2.9.5-4.4.7zm30.5-12.1 72.2 21.4c.7.1 1.4.1 2 .1 2.2 0 4-.6 5.4-2.4 1.4-1.9-.2-3.9-2.2-5l-75.2-16.1c-.7.7-1.4 1.4-2.2 2zm-56.5 48.5c1.3 0 3.2-.5 3.9-1.6l-1.5-5.7c-2.3 0-6.3-.9-9-2.4-.2.5-.4 1-.7 1.5l1.6 6.3c1.6 1.2 4.3 1.9 5.7 1.9zm-12-.5c.8.2 1.5.3 2.1.3 1 0 2.7-.4 3.2-1.4l-1.3-5.1c-1.2 2.2-2.5 4.3-4 6.2zm56.2-40.6 45.3 29.1c1.3.5 2.6.7 3.8.7.8 0 1.6-.1 2.3-.4 1.2-.5 1.8-1.4 1.4-2.4l-51.1-27.8c-.5.3-1 .6-1.7.8zm106.1-9.4c.4.7.6 1.4.7 2.2l35.9 3.4c3.3-.3 4.5-2.1 4.9-3.1.4-1 .3-2.7-1.3-3.8l-38.1-1.9c-.6 1.1-1.4 1.9-2.4 2.6 0 .2.1.4.3.6zm2.8-5.3c-.1.4-.2.7-.3 1.1l36.9 1.8c2.9-.9 3.2-3.6 3.4-4.7 0-2.1-1.2-3.2-2.3-3.7h-38.9c.1.2.1.4.2.5.7 2 1.2 3.4 1 5zm-10.6 17.4c.4-1.2-.5-2.4-2-3.4l-79.3-11.5c-.5.6-1 1.2-1.6 1.8l77.6 16.6c2.3-.1 4.4-1 5.3-3.5zm-95.2-4.1 52.4 28.6c1.5.4 3 .7 4.2.7.4 0 .8 0 1.1-.1 2.8-.8 2.9-2.2 1.8-3.5l-57.1-27c-.8.5-1.6.9-2.4 1.3zm3.5-1.9 60.1 28.4c.5.1 1.1.1 1.6.1.6 0 1.2-.1 1.8-.2 3.1-.6 5.4-1.9 4.7-3.4l-66.5-26c-.5.4-1.1.8-1.7 1.1zm2.8-1.8 65.6 25.7c3.8-.2 6.3-.5 6.7-.7 4.5-2.1 2.8-4.1.2-5.5l-70.7-20.9c-.5.5-1.1.9-1.8 1.4zm10.2 45.7c1.6 0 3.9-.5 3.6-1.8l-4.7-4.1c-.3 0-.6.1-.9.1h-.2c-2.4 0-4.8-.6-7-1.8-.4.4-.9.6-1.5.9l4.1 5.2c2.2 1.1 5.2 1.5 6.6 1.5zm65.1-1.9c1 0 2-.1 2.8-.3 2.4-.9 2.6-2.2.9-3.6l-15.4-7.4c-.7.2-1.4.4-2.2.6-.8.2-1.6.2-2.4.2-.9 0-1.8-.1-2.7-.3-.3.5-.7 1-1.4 1.5l14.3 8.3c1.9.7 4.1 1 6.1 1zm-134.2-33.2c1.1 3.6 1.6 7.3 1.6 11.1 0 2-.4 4.5-.8 6.8l1.5 6.3c1.8.6 3.9 1.1 5.3 1.1 1.6 0 2.5-.5 2.8-1.3l-6.2-23.9-4.2-.1zm98.8 33.6-7.8-5.4c-.3.1-.6.1-1 .1h-.7c-2.6 0-4.9-.6-7-1.4-.7.8-1.8 1.4-3.1 1.8l5.7 3.8c3.5 2.2 6.9 2.7 10.6 2.7 1.6 0 3.6-.5 3.3-1.6zm22.2 1.1h.8c2.9-.2 4-1.6 2.9-3l-12.2-7.1c-.5.2-1 .4-1.6.6h-.2c-.5.1-1.1.1-1.6.1-1.4 0-3-.3-4.5-.7-.4.6-1 1.1-1.6 1.5l11.3 7.3c2.1.8 4.5 1.3 6.7 1.3zm-12.8 1h1.4c1.7-.1 3-1.1 2.4-2.3l-10.1-6.5c-1 .3-2 .5-3.2.5-1.5 0-3-.3-4.7-.8-.4.5-1 .9-1.6 1.3l10 7c1.6.4 3.5.8 5.8.8zm37.7-4.9c1.2 0 2.2-.2 3-.5 1.4-.9.9-2.7-1.3-4l-19.1-8.4c-.4 0-.8.1-1.2.1-.4 1.4-1.6 2.6-3.5 3.5l18.8 9c1.2.1 2.3.3 3.3.3zm43.6-28.1c.6-.8.5-2.5-.9-3.8l-36.2-4.9c-.6.4-1.2.7-1.8.9.3.9.4 1.8.2 2.7l34.3 7c2.1-.1 3.5-.8 4.4-1.9zm-5 6.2c.7-.7 1-2.2-.5-3.4l-33.5-6.8c-.7 1.5-1.8 3.1-3.9 4.1l32 8.2c-.4-.3-.9-.6-1.6-.8 1.1.3 2.1.4 2.9.4 2.4 0 4-1 4.6-1.7zm-15.9 11.2c.7-.7 1.2-1.5.9-2.4l-26.9-8.5c-1.4 1.4-3.3 2.2-5.6 2.4v.1c0 .5-.1.9-.2 1.4l23.4 9c.6.1 1.3.1 1.9.1 2.7-.1 5-.7 6.5-2.1zm9.8-5.1c.7-.5 1.3-1.6 1-2.6l-34.7-8.9c.3 1.5 0 3.1-.9 4.4-.1.1-.2.3-.3.4l24.8 7.9c1.4.3 2.7.4 3.9.4 3 0 5.2-.9 6.2-1.6zm-24 12.2c2.2 0 4.2-.4 5.2-1.3 1.1-1 1-2 0-3l-23.1-8.9c-.7 1.2-2 2.2-3.9 3.1-.3.1-.6.3-1.9.5l21.8 9.6h1.9zm-132 18c1.1 0 2.5-.4 3.3-1.2l-1.8-6c-1.2-.1-2.8-.5-4.3-1.2-1.7 1.2-3.8 1.3-4.5 1.3h-.1l1.2 4.2c1.8 1.8 4.9 2.9 6.2 2.9zm-10.4 0c1.2 0 2.5-.3 3.1-1.2l-1.6-6c-1.1-.2-2.2-.5-3.1-1-1.5 1.1-3.5 1.5-5 1.5-1.3 0-3.6-.4-5.6-1.4-.2.1-.4.2-.6.4 4.3 1.9 8.8 4.8 12.8 7.7-.2-.1-.1 0 0 0zm22.4-.3c1.4 0 2.8-.6 2.9-2l-2.5-5c-1.2 0-3.3-.4-5.2-1.2-1.1.8-2.6 1.2-4.3 1.3l1.2 3.9c1.6 1.7 4.9 3 7.9 3zm-34.7-21.9c.4.2.8.5 1.3.7l-.8-3.2c-.3 1.6-.5 2.7-.5 2.5zm82.6 12.2c1.4 0 2.8-.3 3.1-1l-7.7-5.2h-.6c-1.9 0-3.8-.5-5.7-1.3-.6.6-1.3 1-2.1 1.3l6 5.1c2.6.9 5.6 1.1 7 1.1zm111.3-40.3c.4-.8.1-2.1-1.1-3.1l-36.4-3.4c-.1.6-.2 1.3-.5 1.9-.5 1.1-1.2 2-2 2.7l35.6 4.8c2.4-.3 4-1.6 4.4-2.9zm-136.6 39.9c1.7 0 3.5-.6 3.6-1.7l-3.5-4.4c-.5.1-1 .2-1.6.2-2.3 0-4.5-.8-6.2-1.7-.7.7-1.7 1.2-2.7 1.4l3.5 4.6c1.9 1.2 5.5 1.6 6.9 1.6zm-7.9-1.1-3.8-5c-1.7 0-3.6-.5-5.4-1.3-.6.5-1.3.8-2 1l2.9 5.4c1.2.6 2.6 1 4.4 1 1.7 0 3.4-.3 3.9-1.1zm-3 11.5c1.3 0 2.7-.6 3.1-1.6l-3.2-5.8h-1c-2.2 0-3.9-.5-5.3-1.1-1.1.7-2.5 1.1-3.4 1.2l2.4 4.7c2 1.4 4.7 2.6 7.4 2.6zm-305.700005-32c-2.3-.5-3.6-1.6-4.2-2.2-.4-.4-.7-.9-1-1.4l-16.2 3.2c-.9 1.1-.6 2.7.6 3.7 1.1 1 3.3 1.7 5.7 1.8l15.3-3.8c-.1-.4-.2-.8-.2-1.3zm191.900005 82.8c-.7.3-1.5.5-2.3.5h-.2c-.8 0-1.6-.2-2.4-.5-.8-.3-1.4-.7-1.9-1.2l-3.4 13.8c.4 2.9 1.9 5.5 2.8 5.8 2.2 1 4.5-3.2 5-6.8 0 .2-.1.5-.1.7l2.5-12.3zm7 1.5c-.8.3-1.5.4-2.3.4-.4 0-.8 0-1.3-.1h-.2c-.9-.2-1.6-.6-2.2-1.1l-3.1 15.2c.7 2.4 2.1 4.3 3 4.5 1 .2 3-.6 4.1-3.6l2.5-14.8c-.2-.3-.3-.4-.5-.5zm-63.3-55.2 2.5-4.5h-.8c-2.3 0-4-.4-5.2-1.2-1.6.6-3.3.9-4.6 1l-3.9 5c-.2 1.3 1.2 2.4 3.8 2.4 2.8 0 5.7-1 8.2-2.7zm71.2 56.6c-.9.4-1.8.6-2.8.6h-.2c-.4 0-.9 0-1.3-.1h-.2c-.8-.2-1.5-.5-2.1-.9l-2.5 14.7c.5 2.6 1.8 5 3 5.1 1.9.4 3.9-1.6 4.7-5.6l1.4-13.8zm-14.6-55.5c.2 0 .3 0 .5-.1l-.2.6v.1l-8.3 26.5c.1.8.3 1.6.6 2.3.4.9.7 1.6 1.6 2 .4.2.9.3 1.3.3v-.1l.2.1c.7 0 1.3-.3 1.8-.6l8.3-32.5c-2-1.6-3.9-3.4-5.6-5.3-1.5.5-3.5 1.3-4.7 1.6-4.9 2.3-10.2 5.8-14.5 9.1-4.9 5.3-9.3 12.2-12 20.5-2.7 8.3-6.4 24.4-20.7 23.3 8.4-7.6-2.8-19.4-11.1-11.9-6.5 5.9-5.2 16.8 6 18.6 4.5.8 22.9 3.8 30.3-21 6.9-22.4 18.2-30.6 26.5-33.5zm-8.1 50.2c-.5.1-1.1.2-1.6.2-1 0-2-.2-3-.6h-.2c-.8-.4-1.4-.8-1.9-1.3l-3.3 10.6c-.8 3.9.8 8.1 1.9 8.5 1.6.7 3.4.2 4.7-2.6l3.6-14.5c0-.1-.1-.2-.2-.3zm27.5 7.1h-.2c-.5 0-1-.1-1.5-.2h-.2.1c-.8-.2-1.4-.5-2-.8l-1.7 15.5c.7 2.7 2.1 4.4 3.1 4.5 1.6.5 3.1-1.9 4-4.9l1.2-15c-.7.6-1.7.9-2.8.9zm15.9.2c-.3.1-.6.1-.9.1h-.2c-1 0-1.9-.3-2.8-.7l-.6 16.5c1.1 2.4 3 3.5 3.9 3.3 1.3 0 3.7-1.9 4.5-5.6l-1.1-14.5c-1 .4-1.9.7-2.8.9zm8.1-.9h-.8c-1.2-.1-2.3-.4-3.3-.9-.1.1-.2.1-.3.2l1.3 16.6c.9 2 2.4 3.1 3.7 3 .9-.1 2.8-1.7 3.5-4.8l-1.8-14.9c-.7.4-1.4.7-2.3.8zm-17 .8h-.1c-1.1 0-2.1-.3-3-.8l-1.3 15.4c.6 2.9 2.2 4.5 3.5 4.5 2.5.1 3.9-2.7 4.4-5.8l.6-14.4c-1.3.7-2.7 1.1-4.1 1.1zM97.521875 164.7c-2.3.6-4.7.9-6.8.9-1.3 0-2.5-.1-3.5-.4h-.2c-.1 0-.2-.1-.3-.1l-7.8 4.4c-.1 1.5 2.2 2.6 5.2 2.6 2.9.2 7-.5 10.6-2l5.500005-3.5c-1.200005-.4-2.100005-1.1-2.700005-1.9zm-14-2.1c-1.7.4-3.2.6-4.6.6-1.6 0-3.1-.3-4.2-.8l-.2-.1-.2-.1c-.1 0-.1-.1-.2-.2l-7.3 3.7c-.5 1.3 1.4 2.4 3.4 2.9 1.7.5 4.9.6 7.7-.2l7.2-4.1c-.8-.5-1.3-1.1-1.6-1.7zm84.400005 4.6c-1 0-3.1-.1-4.7-1.3-2.2 1-4.6 1.4-6.2 1.5l-3.9 4.8c-.2 1.5 2.7 2.1 4.7 2.1s4-.6 5.9-1.5l4.3-5.6h-.1zM61.621875 154.5c-3.1-.2-5.6-1.1-7.4-2.8-.4-.4-.8-.8-1.1-1.2l-13.3 4.6c-1.6 1.7.4 3.7 2.9 4.8 1.1.5 4 1.1 6.9 1.1l12.2-5.3c0-.3-.2-.7-.2-1.2zm223.200005 74h-.5c-.8 0-1.7-.2-2.7-.6-.1.1-.3.2-.4.3l1.9 16.1c.8 1.9 2.2 3.1 3.4 3 2.2 0 3.4-2.4 3.8-5.3l-1.9-14.4c-1.1.5-2.3.9-3.6.9zM52.421875 149c-3.1 0-5.9-.9-7.7-2.2-.6-.4-1-1-1.4-1.5l-14.5 3.6c-.6 1.2 0 2.8 1.3 4 1.3 1.2 3.9 1.8 6.3 2l16-5.6c.1-.1 0-.2 0-.3zm20 10.6c-.7.1-1.3.1-1.9.1-3.2 0-5.6-.7-7.1-2l-.6-.6-10.1 4.3c-1.6 1.4.7 3.2 3.2 3.9 2.1.7 5.3.7 8.2.3l9-4.6c-.4-.4-.6-.9-.7-1.4zm70.100005 8c-2 0-3.6-.5-4.7-1.3-2.2.8-4.3 1.2-6.2 1.3l-6.3 4.2c.1 1.2 2.5 2.3 4.9 2.3 1.1 0 3.5-.2 6-1.1l6.3-5.4zm8.4-1.4c-2.1.8-4.4 1.1-6 1.3l-5.7 4.8c0 1.4 2.9 1.9 6.1 1.9 1.6 0 3.7-.5 5.7-1.4l4.2-5.2c-1.2-.1-3-.4-4.3-1.4zm-40.2-.1c-2.3.7-4.7 1.1-6.9 1.1h-1c-.3 0-.5 0-.8-.1l-7.200005 4.5c.5 1 2.3 1.6 4.2 1.7 1.700005.1 5.600005-.4 9.000005-1.6l5.6-3.9c-1.2-.2-2.2-.8-2.9-1.7zm14.1.4c-2.2.9-4.8 1.6-8.1 1.6h-.8l-5.8 3.9c.2 1.1 2 1.9 4.2 1.9 1.1 0 4.1-.3 6.9-1.1l7.8-5.2c-.9.1-2.8-.1-4.2-1.1zm404.2-62.8h-26.7c.6 1 1 2.2 1 3.7v.5c-.3 2.1-1 3.6-2 4.7l25.2 1.5c1.8-1.1 3-3 3.3-5.3.4-3.7-.8-5.1-.8-5.1zm-45 40.7c-.4 1-1 1.8-1.9 2.5-1.4 1.1-3.6 1.8-6 2.1l16.2 6c2.7 0 5.9-.6 7.4-2 1.5-1.3 2-3 1.2-4.3l-16.9-4.3zm-188 81c-.9.7-1.9 1.1-3 1.3-.3 0-.7.1-1 .1h-.1c-.6 0-1.3-.1-2.1-.3-.2.2-.3.3-.5.4l2.1 15.4c1 1.8 2.5 3 3.8 2.8 1.9-.3 3.6-4 3.3-7.4l-2.5-12.3zm158-64.8c-.4.6-.9 1.2-1.5 1.6l-.2.1-.2.1c-1.2.5-2.6.8-4.2.8-1.4 0-3-.2-4.6-.6 0 .1-.1.1-.1.2l10.1 5.9c2.4.4 4.9.4 6.4-.1 2.4-.5 4.6-2 2.9-3.6l-8.6-4.4zm22.9.4-12-5.2c-.3.7-.7 1.3-1.3 1.8-1.5 1.4-3.9 2-7.1 2-.4 0-.8 0-1.2-.1l11.8 6.1c2.5.2 5.2.2 7-.5 2.6-.7 5-2.7 2.8-4.1zm-34.7 2.9c-.6.5-1.3.9-2.3 1.3h-.2c-1 .3-2.2.4-3.5.4-2.1 0-4.6-.4-6.8-.9 0 0 0 .1-.1.1l10.6 6.8c2.2.5 4.3.7 6 .5 3.4 0 5.8-1.3 5.1-3.1l-8.8-5.1zm47.7-25.9c-.2 1-.6 1.9-1.3 2.6-.6.6-1.9 1.7-4.2 2.2v.3l18.8 4.7c2.1-.2 4-.9 5-1.8 1.2-1 1.5-2.5.6-3.6l-18.9-4.4zm-453.100005-1.4c-1.5-.5-2.8-1.3-3.8-2.4v-.2l-.1-.1c-.5-.7-.8-1.5-.9-2.3l-17.4 2.6c-1.4 1.1-2.2 3.2-.8 4.8 1.1 1.2 2.7 2.1 4.6 2.4l18.4-3.7v-1.1zm154.900005 21.6c-1 0-1.9-.2-2.7-.5l-2.9 5.4c.5 1 2.5 1.4 3.7 1.4 1.2 0 3.3-.5 4.9-1.4l3.2-6.4c-2 1-4.3 1.5-6.2 1.5zm330.9-42.7h.2l-20.9-1.3c.4 1.4.3 2.9-.1 3.9-.3.8-1.1 2.6-3.4 3.9.1.2.1.3.1.5l24.2 1.9c1.9-.8 3.4-2.1 4-3.4 1-2.4-1-5.2-4.1-5.5zm-2.1 10.1-21.7-1.7c0 .6-.2 1.2-.4 1.8-.6 1.4-1.8 2.9-3.7 3.8.1.2.1.5.1.7l22.4 3.4c1.7-.3 3.4-1 4.9-2.5 1.3-2 .3-4.4-1.6-5.5zm-46.3 24.1c-.3.7-.8 1.5-1.5 2.1-1.8 1.6-4.2 2.6-7.2 2.8l15 6.5c2.8-.1 5.6-.6 6.7-1.1 2.2-1 4.1-2.7 3.3-4.3l-16.3-6zm-117.4 59.1c-8.3-7.5-19.4 4.3-11.1 11.9-14.3 1-18-15-20.7-23.3-2.8-8.6-7.3-15.7-12.5-21.1-4.6-3.4-9.9-6.7-14.6-8.4h-.5c-.6 0-3-.1-4.5-.4-1.3 1.4-2.7 2.6-4.2 3.8l10.1 31.9c.5.3 1 .4 1.6.4.4 0 .8-.1 1.1-.2 1.2-.5 2-1.4 2.5-2.7l-8.4-27.2c.7.3 1.3.6 2 .9.1 0 .2.1.2.1 7.7 4 16.9 12.7 22.6 32 7.4 24.8 25.8 21.8 30.3 21 11.3-2 12.6-12.8 6.1-18.7zm6.7-37.7-3-4c-.6.1-1.1.1-1.5.1-.2 0-3.6 0-6.6-1.1-.7.5-1.6.8-2.7 1l2.7 5c2.4 1.6 5.2 2.5 7.8 2.5 3.5 0 4.9-2 2.9-3.8 0 0 .2.2.4.3zm-53.3 49.5c-.6.4-1.2.8-1.8 1l-.1.1h-.1c-.8.3-1.6.4-2.4.4h-.6v.1l-.8.3h-.1l-.3.3 4.1 15.7c.9.8 1.9 1.1 3.1.7 2.1-.9 3.3-3.3 2.6-7.5l-3.6-11.1zm118-54.8c-1.1.8-2.5 1.2-4.2 1.3h-1c-2.2 0-4.6-.4-6.9-1.1-.1.1-.2.3-.3.4l8.8 6.1c2.5.6 5 .8 6.2.8 2.9-.2 5.8-1.6 3.6-3.6l-6.2-3.9zm-125.1 57.7c-.8.5-1.7.9-2.7 1.1-.5.1-.9.2-1.3.2h-.2c-.4 0-.8-.1-1.3-.2-.1 0-.1 0-.2.1l-.5.1 3.2 16.4c1 1.1 2.2 1.6 2.9 1.4 1.8-.4 3.5-2.5 3.2-6.7l-3.1-12.4zm73.1-52.5-3-3.7c-.9.2-1.7.2-2.1.2-1.2 0-4.5-.3-7.4-1.6-.5.4-1.1.6-1.7.8l4.8 6.4c1.7.8 3.5 1.3 5.3 1.3 2.6 0 6.7-1 3.7-3.7.1.1.3.2.4.3zm22.8-3.4c-.6.1-1.1.1-1.4.1-2.6 0-5.5-.2-8.6-1.4-.4.4-1 .6-1.6.8l7.2 6.2c2.1.6 4.1.8 5.1.8 2.8 0 5.5-1.4 4.8-2.8l-5.5-3.7zm15.6-.3c-.8.4-1.8.7-2.9.8h-1.6c-3.3 0-6-.7-8.1-1.6-.4.3-.8.5-1.2.6l9 6c2.4.6 4.8.8 5.8.8 3.1 0 5.5-1.7 3.5-3.4.3.1.5.3.8.4l-5.3-3.6zm-28.9.2c-.4.1-.9.1-1.4.1-1 0-4.8-.1-8.3-1.4-.4.3-.8.5-1.3.7l4.9 6.1c1.8.8 3.6 1.2 5.1 1.2 3.6 0 6.9-.7 5.9-2.5l-4.9-4.2zm109.1-36c-.1.9-.4 1.8-.9 2.4l-.1.1-.1.1c-1 1.2-2.3 2-3.8 2.4l21.2 4.9c2-.3 3.7-1.3 4.8-2.5 1.3-1.4.8-3.1-.3-4.3l-20.8-3.1zm-462.600005-2.1c-1.9-.9-3.1-2.3-3.7-3.8-.3-.5-.4-1.1-.4-1.7l-18.2000008 1.4c-2.2.9-3.6 3.6-2.1 5.6 1.1 1.2 2.4000008 1.9 3.8000008 2.3l20.4-3c.1-.3.1-.5.2-.8zm83.800005 18.4c-1.6 1.4-2 3.1 1.2 4 .3.1.7.1 1.1.1 1 0 2.3-.2 3.5-.5l52.1-28c-.9-.4-1.8-.8-2.6-1.3l-55.3 25.7zm31 5.3c-.2 1 .6 1.9 2.1 2.3.4.1.9.1 1.3.1 1.3 0 2.6-.3 3.9-.8l-.1-.1 30.9-27.5c-.9-.2-1.7-.4-2.6-.7l-35.5 26.7zm-21.8-2.2c-.5 1 .1 2.1 1.3 2.6.7.3 1.5.4 2.3.4 1.1 0 2.3-.2 3.5-.6l45.1-28.4c-.8-.3-1.5-.6-2.2-.9l-50 26.9zm10.6 1.5c-.5 1.2 0 2.3 1.8 2.4h.6c2.4 0 4.7-.7 6.7-1.5l36.4-27.2c-.9-.3-1.7-.5-2.5-.8l-43 27.1zm-38.900005-14.5c-3 1.5-5.6 3.6-.6 6 .4.2 2.6.4 6.100005.6l64.6-25.1c-.7-.5-1.3-.9-1.9-1.4l-68.200005 19.9zm-7.9-7.5c-2.3 1-4.2 3.2-2.8 5.3 1.3 1.9 3.2 2.4 5.4 2.4h.9l71.500005-20.8c-.8-.6-1.5-1.3-2.2-1.9l-72.800005 15zm-32.8 19.2c1.6 1.4 3.8 2 6.5 2 1 0 2-.1 3.1-.3l25-8.8c-.2-.5-.2-.9-.2-1.4v-.1c-2.5-.2-4.4-1.1-5.9-2.7l-29.3 9c-.4.9.1 1.7.8 2.3zm14.2 7.1c1.5 0 3.1-.2 4.6-.5l21.4-9.2c-.9-.1-1.1-.3-1.4-.4-1.8-.9-3.1-1.9-3.8-3l-26.2 9.2c-.6.9-.6 1.8.3 2.6 1 .9 2.9 1.3 5.1 1.3zm11.6-33.5c-1.6 1-2.7 2.3-2.3 3.5.9 2.3 2.7 3.2 4.7 3.5l76.400005-15.8c-.7-.7-1.4-1.4-1.9-2.1l-76.900005 10.9zm-35.6 21.3c1 .7 3.1 1.6 6.2 1.6 1.4 0 2.9-.2 4.6-.6-.2.1-.4.2-.5.2l27-8.3c-.9-1.3-1.3-2.9-.9-4.4h-.1l-36.8 8c-1.1 1.2-.4 2.8.5 3.5zm161.600005 9c.2 1 1.4 1.5 3.1 1.5 1.8 0 3.7-1 4.9-2.1l6.2-23.5h-5l-9.2 24.1zm18.5-3.7-.9 3.8c.6-.2 1.3-.5 1.8-.8-.4-1-.6-2-.9-3zm-68.1 2.6c-1.3 1.7 0 3.4 2.2 3.4h.2c1.8 0 3.4-.4 4.8-1.1l24.5-26.6c-1.2-.2-2.3-.4-3.5-.7l-28.2 25zm51.3 12.2c2 0 3.9-.8 5-1.9l1.6-5.7c-.1-.1-.3-.2-.4-.2-1.5.8-3.2 1.4-4.8 1.4-1.3 0-2.3-.2-3.1-.5l-1.8 5.7c.7.8 2.4 1.2 3.5 1.2zm9.8.5c1.5 0 4.5-.7 5.9-2.3l1.8-6.7c-2.5 1-5.5 1.7-7.3 1.7-1 0-1.8-.1-2.5-.4l-1.7 6.1c.7 1.1 2.6 1.6 3.8 1.6zm-2.4-11.5c.4.8 1.3 1.2 2.8 1.2 1.2 0 2.9-.3 4.5-.8l1.6-6.7c-.4-2.2-.6-4.4-.6-6.6 0-3.8.5-7.5 1.6-11.1h-3.6l-6.3 24zm-38.3-.8c.5-.4.9-.7 1.3-1-1.4 1.3.2 3.4 1.9 3.4 2 0 4.3-.8 6.3-2l13.6-23.8c-1.6-.1-3.2-.2-4.7-.3l-18.4 23.7zm20.1.6c.3 1 1.9 1.5 3 1.5 1.9 0 3.8-.7 5.1-1.7l9.1-23.7h-5.8l-11.4 23.9zm-29.9-.8c.3-.3.7-.5 1-.8-1.4 1.3-1.1 3.6 2.1 3.6 1.5 0 2.9-.5 4.3-1.1l19.6-25.4c-1.6-.2-3.1-.4-4.6-.6l-22.4 24.3zm34.1-23.2-13.9 24.4c.1 1 1.4 1.4 2.5 1.4 1.8 0 4.1-.6 5.9-1.8l11.4-23.9h-1.7c-1.4 0-2.8 0-4.2-.1zm-99.7 15.9c-1.2 1.6 1.2 3.1 4.5 3.7.6.1 1.2.2 1.8.2h.7l59.7-27.8c-.7-.4-1.4-.8-2-1.2l-64.7 25.1zm126 19.6c.6 0 2.5-1.1 3.4-1.4-1.8-2.4-3.2-5-4.4-7.8l-2.1 8c.7.9 2.2 1.2 3.1 1.2zM74.621875 118.6c1.1 2.4 3.6 3.4 5.9 3.7l77.600005-11c-.5-.7-1-1.4-1.4-2l-79.300005 5c-2.2.6-3.8 2-2.8 4.3zm3.1-5.6 78.400005-4.9c-1.1-1.9-1.6-3.3-1.6-3.5l-.3-.9H73.521875c-1 2.8-1.5 4-1.3 5.1.3 2.3 2.9 3.6 5.5 4.2zm148.800005 54.3c-.5-.2-1-.4-1.4-.7-2 1-4.3 1.4-5.6 1.4-1.5 0-3.3-.4-4.7-1.3l-1.9 6.9c.6.6 1.5.9 2.4 1 3.4-2.5 7.3-5.2 11.2-7.3zm-14.4 4.2 1.3-4.6c-1.1.4-2.3.6-3.6.6-.7 0-2.9-.1-4.5-1.3-.2.1-.5.2-.7.3l-2.2 7c.8.7 2.1 1.1 3.1 1.1 1.4.1 4.7-1.1 6.6-3.1zm-18.6 2.9c3.2 0 6.8-1.5 8.2-3.4l1.2-3.9c-1.2.3-2.2.4-3 .4-1.9 0-3.5-.5-4.7-1.3-.5.2-1 .4-1.4.5l-3.1 6.1c.3 1.1 1.6 1.6 2.8 1.6zM25.121875 113.7c.1-.3.3-.6.4-.9-.9-1.1-1.7-2.6-2-4.8v-.5c0-1.5.4-2.7 1-3.7H.82187424s-1.2 1.4-.7 5.3c.3 2.6 1.69999996 4.5 3.79999996 5.6l21.2000008-1zm3.3 8.3c-2.2-1.3-3.1-3.1-3.4-3.9-.3-.8-.4-1.9-.3-3l-19.0000008.8c-2.2.9-3.4 3.1-2.6 5.1.5 1.3 1.9 2.5 3.5 3.3l21.5000008-1.7c.2-.3.2-.5.3-.6zm1.4-9.9 39.6-2c-.1-.3-.2-.6-.2-.9-.2-1.6.2-3 .9-5 .1-.2.1-.3.2-.5h-41.6c-1.1.5-2.3 1.6-2.3 3.7.2 1.2.5 3.9 3.4 4.7zm46.1 47.6c.8.4 1.8.5 3 .5 1.4 0 3-.3 4.7-.7l18.700005-9.5c-1-.7-1.7-1.6-2-2.6-.700005 0-1.200005-.1-1.700005-.1l-23 9.9c-.7 1-.6 1.9.3 2.5zm-46.8-46.4c-1.6 1.1-1.7 2.8-1.3 3.8.4 1.1 1.6 2.9 5.1 3.1l38.5-3.3c0-.8.3-1.6.7-2.3.1-.2.2-.4.4-.6-1.1-.7-1.9-1.6-2.5-2.8l-40.9 2.1zm152.600005 61.4c2.9 0 5.8-1.4 7.9-3l2.3-4.5c-.9.2-1.6.2-2.1.2-.4 0-2.9 0-4.7-1.3-.8.4-1.8.7-2.9.9l-3.4 6.3c.5.8 1.7 1.4 2.9 1.4zm-45-11.1 9.4-6.3c-.4-.2-.7-.5-1-.8-2 .8-4.4 1.4-7 1.4h-.7c-.7 0-1.3-.1-1.8-.3l-9.4 6.5c.6.5 1.9.8 3 .8 2.6-.2 5.1-.4 7.5-1.3zm-21.5 1.5h1.4c4.7 0 8-1.6 10.5-3.3-.4.2-.6.5-.8.7l8.3-5.7c-.4-.3-.7-.6-1-.9-1.6.5-3.2.8-4.7.8-1.2 0-2.4-.2-3.4-.6h-.1c-.2-.1-.3-.2-.5-.2l-12.2 7.7c.2.9 1.2 1.5 2.5 1.5zm-27.300005-2.7c.8.2 1.7.3 2.8.3 2.6 0 5.9-.6 8.4-1.6l14.200005-8.1c-.4-.3-.6-.7-.8-1-.9.2-1.8.3-2.7.3-.8 0-1.6-.1-2.4-.2-1.5-.3-2.9-.7-3.9-1.3l-17.000005 8.7c-1.1 1.1-.7 2.2 1.4 2.9zm15.100005 1.8h.8c3.8 0 7.8-1.3 10.4-2.8-.2.1-.4.3-.6.4l10.2-6.5c-.4-.3-.7-.7-1-1.1-1.5.4-3.1.7-4.5.7-.6 0-1.1 0-1.6-.1h-.2c-1-.3-1.7-.6-2.3-1l-14.500005 8.3c-.2 1.1 1.000005 2 3.300005 2.1zm64.9.1c1.3 0 4.5-.3 6.4-1.3l4.5-5.8c-.2-.1-.4-.3-.5-.4-1.7.9-3.9 1.7-6.2 1.7-1.5 0-2.7-.4-3.7-1l-4.1 5.1c-.1 1.1 1.8 1.7 3.6 1.7zm11.8 0c2.2 0 3.9-.6 5.3-1.5l3.1-5.6c-.1-.1-.3-.2-.4-.3-1.9.8-3.9 1.3-5.7 1.3-.8 0-1.5-.2-2.2-.5l-4.1 5.4c.3.9 2.1 1.2 4 1.2zm-37.2.4c1.6 0 5.6-.3 8.5-1.7l6-5.1c-.3-.2-.6-.5-.9-.7-1.9.8-3.9 1.3-5.7 1.3-.6 0-1.2 0-1.8-.1h-.1c-.5-.1-.9-.2-1.3-.4l-7.9 5.3c-.1.9 1.6 1.4 3.2 1.4zm13.2-.1c1.4 0 4.2-.4 6.5-1.5l4.6-5.7c-2 .9-4 1.4-6.1 1.4h-.2c-.8 0-1.6-.2-2.3-.4l-5.9 5c.4.8 2.1 1.2 3.4 1.2z"/>
</svg>